<svg xmlns="http://www.w3.org/2000/svg" xmlns:xlink="http://www.w3.org/1999/xlink" width="320" zoomAndPan="magnify" viewBox="0 0 240 239.999995" height="320" preserveAspectRatio="xMidYMid meet" version="1.0"><defs><clipPath id="3c52ed7e8f"><path d="M 2.546875 7 L 237.9375 7 L 237.9375 234 L 2.546875 234 Z M 2.546875 7 " clip-rule="nonzero"/></clipPath><clipPath id="c64b921e4b"><path d="M 121.808594 8.28125 L 157.40625 74.230469 C 158.527344 76.308594 160.523438 77.765625 162.839844 78.203125 L 235.660156 91.929688 C 236.398438 92.066406 237 92.597656 237.238281 93.308594 C 237.472656 94.019531 237.300781 94.804688 236.792969 95.355469 L 185.941406 150.308594 C 184.335938 152.042969 183.582031 154.398438 183.878906 156.742188 L 193.375 231.300781 C 193.46875 232.039062 193.152344 232.769531 192.550781 233.203125 C 191.945312 233.636719 191.15625 233.707031 190.484375 233.382812 L 123.394531 201.113281 C 121.273438 200.09375 118.800781 200.09375 116.675781 201.113281 L 49.585938 233.382812 C 48.917969 233.707031 48.125 233.636719 47.523438 233.203125 C 46.921875 232.769531 46.605469 232.039062 46.699219 231.300781 L 56.195312 156.742188 C 56.492188 154.398438 55.738281 152.042969 54.132812 150.308594 L 3.28125 95.355469 C 2.773438 94.804688 2.601562 94.019531 2.835938 93.308594 C 3.074219 92.597656 3.675781 92.066406 4.414062 91.929688 L 77.234375 78.203125 C 79.550781 77.765625 81.546875 76.308594 82.667969 74.230469 L 118.265625 8.28125 C 118.617188 7.628906 119.296875 7.222656 120.035156 7.222656 C 120.777344 7.222656 121.457031 7.628906 121.808594 8.28125 Z M 121.808594 8.28125 " clip-rule="nonzero"/></clipPath><clipPath id="c0a360a288"><path d="M 0.546875 0.199219 L 235.601562 0.199219 L 235.601562 226.761719 L 0.546875 226.761719 Z M 0.546875 0.199219 " clip-rule="nonzero"/></clipPath><clipPath id="c2ee7459a9"><path d="M 119.808594 1.28125 L 155.40625 67.230469 C 156.527344 69.308594 158.523438 70.765625 160.839844 71.203125 L 233.660156 84.929688 C 234.398438 85.066406 235 85.597656 235.238281 86.308594 C 235.472656 87.019531 235.300781 87.804688 234.792969 88.355469 L 183.941406 143.308594 C 182.335938 145.042969 181.582031 147.398438 181.878906 149.742188 L 191.375 224.300781 C 191.46875 225.039062 191.152344 225.769531 190.550781 226.203125 C 189.945312 226.636719 189.15625 226.707031 188.484375 226.382812 L 121.394531 194.113281 C 119.273438 193.09375 116.800781 193.09375 114.675781 194.113281 L 47.585938 226.382812 C 46.917969 226.707031 46.125 226.636719 45.523438 226.203125 C 44.921875 225.769531 44.605469 225.039062 44.699219 224.300781 L 54.195312 149.742188 C 54.492188 147.398438 53.738281 145.042969 52.132812 143.308594 L 1.28125 88.355469 C 0.773438 87.804688 0.601562 87.019531 0.835938 86.308594 C 1.074219 85.597656 1.675781 85.066406 2.414062 84.929688 L 75.234375 71.203125 C 77.550781 70.765625 79.546875 69.308594 80.667969 67.230469 L 116.265625 1.28125 C 116.617188 0.628906 117.296875 0.222656 118.035156 0.222656 C 118.777344 0.222656 119.457031 0.628906 119.808594 1.28125 Z M 119.808594 1.28125 " clip-rule="nonzero"/></clipPath><clipPath id="18b20a023e"><rect x="0" width="236" y="0" height="227"/></clipPath></defs><g clip-path="url(#3c52ed7e8f)"><g clip-path="url(#c64b921e4b)"><g transform="matrix(1, 0, 0, 1, 2, 7)"><g clip-path="url(#18b20a023e)"><g clip-path="url(#c0a360a288)"><g clip-path="url(#c2ee7459a9)"><rect x="-54.8" width="345.6" fill="#bae0cd" height="345.599992" y="-59.799999" fill-opacity="1"/></g></g></g></g></g></g></svg>