<?xml version="1.0" standalone="no"?>
<!DOCTYPE svg PUBLIC "-//W3C//DTD SVG 1.1//EN" "http://www.w3.org/Graphics/SVG/1.1/DTD/svg11.dtd">
<svg xmlns="http://www.w3.org/2000/svg" id="Camada_1" data-name="Camada 1" viewBox="0 0 1006 271.32" width="1006" height="271.32000732421875"><defs><style>.cls-1{fill:#607261;}.cls-2{fill:#6e8b74;}.cls-3{fill:#ba5f26;}.cls-4{fill:#627363;}.cls-5{fill:#708d75;}</style></defs><path class="cls-1" d="M322.13,631.57l11.56-24.78c12.4,8.73,30.89,14.83,48.54,14.83,20.18,0,28.38-6.5,28.38-15.24,0-26.61-85.54-8.33-85.54-61.14,0-24.18,20.17-44.29,62-44.29,18.49,0,37.41,4.27,51.07,12.6l-10.51,25C414,531,399.89,527.36,386.86,527.36c-20.18,0-27.95,7.31-27.95,16.25,0,26.21,85.53,8.13,85.53,60.33,0,23.77-20.38,44.09-62.42,44.09C358.7,648,335.16,641.32,322.13,631.57Z" transform="translate(-37 -404.34)"/><path class="cls-1" d="M579.37,536.3V645.59H548.26v-13c-8.61,9.54-21.22,14.62-35.09,14.62-28.38,0-48.34-15.44-48.34-49.16V536.3h32.78v57.08c0,18.28,8.41,26.41,22.91,26.41,15.13,0,26.06-9.35,26.06-29.46v-54Z" transform="translate(-37 -404.34)"/><path class="cls-1" d="M703,621.21v24.38H602.07v-19.1l57.58-65.81H603.54V536.3h97.52v19.09l-57.59,65.82Z" transform="translate(-37 -404.34)"/><path class="cls-1" d="M837.88,536.3V645.59H806.77v-13c-8.62,9.54-21.23,14.62-35.1,14.62-28.37,0-48.33-15.44-48.33-49.16V536.3h32.78v57.08c0,18.28,8.41,26.41,22.91,26.41,15.13,0,26.06-9.35,26.06-29.46v-54Z" transform="translate(-37 -404.34)"/><polygon class="cls-1" points="904.07 178.28 951.14 131.96 912.05 131.96 864.14 175.84 864.14 131.96 831.35 131.96 831.35 241.25 864.14 241.25 864.14 213.42 879.9 198.39 915.63 241.25 955.35 241.25 904.07 178.28"/><path class="cls-1" d="M1002.23,503.39c0-9.95,8.19-17.67,20.38-17.67S1043,493,1043,502.78c0,10.56-8.2,18.28-20.39,18.28S1002.23,513.34,1002.23,503.39Zm4,32.91H1039V645.59h-32.79Z" transform="translate(-37 -404.34)"/><path class="cls-2" d="M318.88,626.33l11.55-24.78c12.4,8.74,30.9,14.83,48.55,14.83,20.18,0,28.37-6.5,28.37-15.24,0-26.61-85.53-8.32-85.53-61.14,0-24.17,20.17-44.28,62-44.28,18.49,0,37.41,4.26,51.07,12.59l-10.51,25c-13.66-7.52-27.74-11.18-40.77-11.18-20.18,0-28,7.32-28,16.25,0,26.21,85.54,8.13,85.54,60.34,0,23.76-20.39,44.08-62.42,44.08C355.44,642.79,331.91,636.08,318.88,626.33Z" transform="translate(-37 -404.34)"/><path class="cls-2" d="M576.12,531.06V640.35H545v-13C536.4,636.9,523.79,642,509.91,642c-28.37,0-48.33-15.43-48.33-49.15V531.06h32.78v57.08c0,18.29,8.41,26.41,22.91,26.41,15.13,0,26.06-9.34,26.06-29.45v-54Z" transform="translate(-37 -404.34)"/><path class="cls-2" d="M699.7,616v24.38H598.82v-19.1l57.58-65.81H600.29V531.06H697.8v19.1L640.22,616Z" transform="translate(-37 -404.34)"/><path class="cls-2" d="M834.62,531.06V640.35h-31.1v-13C794.9,636.9,782.29,642,768.42,642c-28.37,0-48.34-15.43-48.34-49.15V531.06h32.79v57.08c0,18.29,8.41,26.41,22.91,26.41,15.13,0,26.06-9.34,26.06-29.45v-54Z" transform="translate(-37 -404.34)"/><polygon class="cls-2" points="900.82 173.04 947.89 126.72 908.8 126.72 860.88 170.6 860.88 126.72 828.1 126.72 828.1 236.01 860.88 236.01 860.88 208.18 876.65 193.15 912.38 236.01 952.1 236.01 900.82 173.04"/><path class="cls-2" d="M999,498.15c0-9.95,8.19-17.67,20.38-17.67s20.39,7.31,20.39,17.06c0,10.57-8.2,18.29-20.39,18.29S999,508.11,999,498.15Zm4,32.91h32.79V640.35H1003Z" transform="translate(-37 -404.34)"/><path class="cls-3" d="M494.58,512.6v3.87h-31v-42.4h30.08V478H468.2V493h22.68v3.82H468.2V512.6Z" transform="translate(-37 -404.34)"/><path class="cls-3" d="M496.21,518.05H461.94V472.5h33.33v7H469.82v11.94h22.69v7H469.82V511h26.39Zm-31-3.15H493v-.73H466.57V495.28h22.69v-.68H466.57V476.38H492v-.73H465.19Z" transform="translate(-37 -404.34)"/><path class="cls-3" d="M499.47,512.84l2-3.39A20.35,20.35,0,0,0,513.19,513c6.27,0,8.84-2.06,8.84-5.21,0-8.3-21.37-1.75-21.37-14.35,0-5.21,4.64-9.09,13-9.09,4.26,0,8.89,1.15,11.65,3l-1.94,3.45a17.3,17.3,0,0,0-9.71-2.72c-6,0-8.59,2.24-8.59,5.27,0,8.6,21.37,2.12,21.37,14.35,0,5.51-5,9.09-13.6,9.09C507.43,516.78,502.16,515.08,499.47,512.84Z" transform="translate(-37 -404.34)"/><path class="cls-3" d="M512.88,518.35c-5.64,0-11.32-1.7-14.47-4.32l-1-.84,3.61-6.1,1.48,1.12a18.77,18.77,0,0,0,10.71,3.24c7.21,0,7.21-2.74,7.21-3.64,0-2.16-2.46-2.82-7.68-3.72-5.77-1-13.68-2.36-13.68-10.63,0-6.48,5.75-10.66,14.66-10.66,4.65,0,9.58,1.27,12.57,3.24l1.21.8L524,493.08l-1.49-1a15.66,15.66,0,0,0-8.78-2.44c-2.6,0-7,.48-7,3.7,0,2.35,2.54,3.06,7.94,4,5.67,1,13.43,2.38,13.43,10.34C528.11,514.26,522.27,518.35,512.88,518.35Zm-11.28-5.94a23.05,23.05,0,0,0,11.28,2.8c7.5,0,12-2.81,12-7.52,0-5-4.06-6.06-10.75-7.25-5-.88-10.62-1.87-10.62-7.1,0-1.61.74-6.85,10.22-6.85a19.59,19.59,0,0,1,9.1,2.1l.37-.66a23.18,23.18,0,0,0-9.47-2c-7,0-11.41,2.88-11.41,7.52,0,5.24,4.35,6.39,11,7.53,4.86.84,10.37,1.79,10.37,6.82,0,2.53-1.36,6.78-10.47,6.78A23,23,0,0,1,502,511.71Z" transform="translate(-37 -404.34)"/><path class="cls-3" d="M531.37,500.54c0-9.51,7.14-16.17,17-16.17,5.58,0,10.28,2.12,12.91,6.3l-3.32,2.18a11.34,11.34,0,0,0-9.59-4.72c-7.21,0-12.47,5-12.47,12.41S541.14,513,548.35,513a11.29,11.29,0,0,0,9.59-4.66l3.32,2.18c-2.63,4.12-7.33,6.3-12.91,6.3C538.51,516.78,531.37,510.05,531.37,500.54Z" transform="translate(-37 -404.34)"/><path class="cls-3" d="M548.35,518.35c-10.78,0-18.61-7.49-18.61-17.81s7.83-17.74,18.61-17.74c6.36,0,11.43,2.5,14.3,7.05l.8,1.28-5.94,3.9-.92-1.3a9.71,9.71,0,0,0-8.24-4c-6.49,0-10.84,4.36-10.84,10.84s4.35,10.85,10.84,10.85a9.65,9.65,0,0,0,8.24-4l.92-1.3,6,3.91-.82,1.28C559.78,515.78,554.57,518.35,548.35,518.35Zm0-32.41c-9,0-15.36,6-15.36,14.6s6.32,14.67,15.36,14.67c4.53,0,8.24-1.53,10.62-4.33l-.68-.45a13.1,13.1,0,0,1-9.94,4.1c-8.3,0-14.1-5.75-14.1-14s5.8-14,14.1-14a13.08,13.08,0,0,1,9.94,4.17l.69-.45C556.62,487.47,552.91,485.94,548.35,485.94Z" transform="translate(-37 -404.34)"/><path class="cls-3" d="M566.09,500.54c0-9.45,7.14-16.17,16.79-16.17s16.73,6.72,16.73,16.17-7.08,16.24-16.73,16.24S566.09,510,566.09,500.54Zm29,0c0-7.45-5.2-12.41-12.22-12.41s-12.28,5-12.28,12.41S575.86,513,582.88,513,595.1,508,595.1,500.54Z" transform="translate(-37 -404.34)"/><path class="cls-3" d="M582.88,518.35c-10.67,0-18.42-7.49-18.42-17.81s7.75-17.74,18.42-17.74,18.36,7.46,18.36,17.74S593.52,518.35,582.88,518.35Zm0-32.41c-8.79,0-15.17,6.14-15.17,14.6s6.38,14.67,15.17,14.67S598,509,598,500.54,591.64,485.94,582.88,485.94Zm0,28.59c-8.06,0-13.91-5.88-13.91-14s5.85-14,13.91-14,13.85,5.89,13.85,14S590.9,514.53,582.88,514.53Zm0-24.83c-6.27,0-10.66,4.46-10.66,10.84s4.39,10.85,10.66,10.85,10.6-4.46,10.6-10.85S589.12,489.7,582.88,489.7Z" transform="translate(-37 -404.34)"/><path class="cls-3" d="M608.7,471.53h4.45v44.94H608.7Z" transform="translate(-37 -404.34)"/><path class="cls-3" d="M614.78,518.05h-7.7V470h7.7Zm-4.45-3.15h1.2V473.1h-1.2Z" transform="translate(-37 -404.34)"/><path class="cls-3" d="M650.44,496.73v19.74h-4.26v-5c-2,3.27-5.89,5.27-11.35,5.27-7.45,0-12-3.76-12-9.27,0-4.91,3.26-9,12.72-9H646v-1.93c0-5.46-3.2-8.42-9.34-8.42a17.13,17.13,0,0,0-11,3.75l-2-3.21a21.43,21.43,0,0,1,13.41-4.3C645.61,484.37,650.44,488.49,650.44,496.73ZM646,506.9v-5.21H635.65c-6.39,0-8.46,2.43-8.46,5.7,0,3.69,3.07,6,8.33,6C640.54,513.38,644.23,511.08,646,506.9Z" transform="translate(-37 -404.34)"/><path class="cls-3" d="M634.83,518.35c-8.16,0-13.65-4.36-13.65-10.84,0-3.19,1.4-10.6,14.34-10.6h8.84v-.36c0-4.61-2.52-6.85-7.71-6.85a15.56,15.56,0,0,0-9.89,3.36l-1.46,1.25-3.73-6,1.06-.87c3.62-3,8.89-4.67,14.46-4.67,9.66,0,15,4.95,15,13.93v21.32h-7.51v-2.48A16.3,16.3,0,0,1,634.83,518.35Zm.69-18.29c-7.36,0-11.09,2.5-11.09,7.45,0,4.75,4,7.7,10.4,7.7a14.48,14.48,0,0,0,6.27-1.27,14.75,14.75,0,0,1-5.58,1c-6.14,0-10-2.9-10-7.57,0-3.32,1.75-7.27,10.09-7.27h12v6l.19-.31v9.13h1V496.73c0-7.16-3.94-10.79-11.72-10.79a20.53,20.53,0,0,0-11.27,3.12l.31.5a19.37,19.37,0,0,1,10.52-3c7,0,11,3.65,11,10v3.51Zm.13,3.21c-6.84,0-6.84,2.88-6.84,4.12,0,4,4.7,4.42,6.71,4.42,4.24,0,7.29-1.8,8.84-5.22v-3.32Z" transform="translate(-37 -404.34)"/><path class="cls-3" d="M709,471.53v44.94h-4.26v-6.3c-2.69,4.31-7.27,6.61-12.72,6.61-9.4,0-16.42-6.61-16.42-16.24s7-16.17,16.42-16.17c5.26,0,9.78,2.18,12.53,6.3V471.53Zm-4.38,29c0-7.45-5.27-12.41-12.22-12.41s-12.29,5-12.29,12.41S685.41,513,692.43,513,704.65,508,704.65,500.54Z" transform="translate(-37 -404.34)"/><path class="cls-3" d="M692.05,518.35c-10.46,0-18-7.49-18-17.81s7.58-17.74,18-17.74A16.81,16.81,0,0,1,703,486.49V470h7.7v48.09h-7.51v-3.53A16.73,16.73,0,0,1,692.05,518.35Zm0-32.41c-8.71,0-14.79,6-14.79,14.6s6.08,14.67,14.79,14.67c4.83,0,8.78-2,11.16-5.58a13.6,13.6,0,0,1-10.78,4.9c-8.06,0-13.91-5.88-13.91-14s5.85-14,13.91-14A13.61,13.61,0,0,1,703,491.21,13,13,0,0,0,692.05,485.94Zm14.35,29h1V473.1h-1.2V496l-1.54-2.3a15.51,15.51,0,0,1,.21,13.28l1.52-2.42Zm-14-25.2c-6.28,0-10.66,4.46-10.66,10.84s4.38,10.85,10.66,10.85S703,506.93,703,500.54,698.67,489.7,692.43,489.7Z" transform="translate(-37 -404.34)"/><path class="cls-3" d="M750.14,501.88H722.57c.5,6.66,5.77,11.08,13,11.08a13.19,13.19,0,0,0,10.09-4.18l2.51,2.79c-2.95,3.39-7.52,5.21-12.72,5.21-10.28,0-17.3-6.79-17.3-16.24s6.83-16.17,16.11-16.17,16,6.6,16,16.17C750.21,500.91,750.14,501.39,750.14,501.88Zm-27.57-3.21H746a11.75,11.75,0,0,0-23.38,0Z" transform="translate(-37 -404.34)"/><path class="cls-3" d="M735.42,518.35c-11.14,0-18.92-7.32-18.92-17.81,0-10.28,7.45-17.74,17.73-17.74s17.6,7.46,17.6,17.74c0,.2,0,.43,0,.68s0,.43,0,.66v1.57H724.45c1.12,4.81,5.38,7.94,11.09,7.94a11.55,11.55,0,0,0,8.87-3.64l1.22-1.36,4.65,5.16-.89,1C746.15,516.3,741.19,518.35,735.42,518.35Zm-1.19-32.41c-8.39,0-14.48,6.14-14.48,14.6,0,8.64,6.44,14.67,15.67,14.67A15.35,15.35,0,0,0,746,511.53l-.4-.45a15.28,15.28,0,0,1-10,3.45c-8.16,0-14-5-14.59-12.54l-.13-1.68h27.76C748.47,491.84,742.6,485.94,734.23,485.94Zm13.49,14.3H720.8l.15-1.71a13.38,13.38,0,0,1,26.62,0Zm-23.25-3.14H744a10.15,10.15,0,0,0-19.57,0Z" transform="translate(-37 -404.34)"/><path class="cls-3" d="M822.21,474.07v42.4h-4.45V482.55l-17.23,28.53h-2.19L781.1,482.74v33.73h-4.45v-42.4h3.83l19,31.44,18.86-31.44Z" transform="translate(-37 -404.34)"/><path class="cls-3" d="M823.84,518.05h-7.7V488.36l-14.68,24.3h-4.05l-14.68-24.15v29.54H775V472.5h6.38l18.11,29.89,17.93-29.89h6.39Zm-4.45-3.15h1.2V475.65h-1.26l-19.8,33-20-33h-1.26V514.9h1.2V477l19.79,32.55h.33l19.79-32.76Z" transform="translate(-37 -404.34)"/><path class="cls-3" d="M865.27,484.61v31.86H861v-5.81c-2.31,3.88-6.58,6.12-11.84,6.12-8.4,0-13.91-4.55-13.91-13.69V484.61h4.45v18.05c0,6.79,3.63,10.24,9.9,10.24,6.89,0,11.22-4.3,11.22-11.57V484.61Zm-14.67-4.9h-4.39l8.59-7.51h6Z" transform="translate(-37 -404.34)"/><path class="cls-3" d="M849.16,518.35c-9.73,0-15.54-5.71-15.54-15.26V483h7.7v19.62c0,5.75,2.79,8.67,8.28,8.67,6.09,0,9.59-3.64,9.59-10V483h7.7v35h-7.51V515A15.92,15.92,0,0,1,849.16,518.35Zm-12.29-32.17v16.91c0,7.81,4.37,12.12,12.29,12.12a12,12,0,0,0,9.23-3.7,13,13,0,0,1-8.79,3c-7.33,0-11.53-4.3-11.53-11.81V486.18Zm25.76,28.72h1V486.18h-1.2v15.15a16.38,16.38,0,0,1-.73,5l.92-1.54Zm-11.48-33.62H842l12.17-10.66h11.38Zm4.28-7.51-2.9,2.53,3.43-2.53Z" transform="translate(-37 -404.34)"/><path class="cls-3" d="M873.16,512.84l2-3.39A20.36,20.36,0,0,0,886.89,513c6.26,0,8.83-2.06,8.83-5.21,0-8.3-21.37-1.75-21.37-14.35,0-5.21,4.64-9.09,13-9.09,4.26,0,8.9,1.15,11.65,3l-1.94,3.45a17.3,17.3,0,0,0-9.71-2.72c-6,0-8.59,2.24-8.59,5.27,0,8.6,21.37,2.12,21.37,14.35,0,5.51-5,9.09-13.6,9.09C881.12,516.78,875.86,515.08,873.16,512.84Z" transform="translate(-37 -404.34)"/><path class="cls-3" d="M886.57,518.35c-5.64,0-11.32-1.7-14.47-4.32l-1-.84,3.6-6.1,1.48,1.12a18.8,18.8,0,0,0,10.72,3.24c7.21,0,7.21-2.74,7.21-3.64,0-2.16-2.46-2.82-7.69-3.72-5.77-1-13.68-2.36-13.68-10.63,0-6.48,5.75-10.66,14.66-10.66,4.65,0,9.58,1.27,12.57,3.24l1.21.8-3.51,6.24-1.49-1a15.63,15.63,0,0,0-8.78-2.44c-2.6,0-7,.48-7,3.7,0,2.35,2.54,3.06,7.94,4,5.67,1,13.43,2.38,13.43,10.34C901.8,514.26,896,518.35,886.57,518.35Zm-11.28-5.94a23.08,23.08,0,0,0,11.28,2.8c7.5,0,12-2.81,12-7.52,0-5-4.07-6.06-10.76-7.25-5-.88-10.61-1.87-10.61-7.1,0-1.61.73-6.85,10.21-6.85a19.56,19.56,0,0,1,9.1,2.1l.37-.66a23.18,23.18,0,0,0-9.47-2c-7,0-11.41,2.88-11.41,7.52,0,5.24,4.36,6.39,11,7.53,4.86.84,10.37,1.79,10.37,6.82,0,2.53-1.36,6.78-10.46,6.78a23.06,23.06,0,0,1-11.19-2.88Z" transform="translate(-37 -404.34)"/><path class="cls-3" d="M907.38,474.56a3.16,3.16,0,0,1,3.26-3,3.11,3.11,0,0,1,3.26,3,3.26,3.26,0,0,1-6.52.06Zm1,10.05h4.45v31.86h-4.45Z" transform="translate(-37 -404.34)"/><path class="cls-3" d="M914.46,518.05h-7.7V483h7.7ZM910,514.9h1.2V486.18H910Zm.63-35.68a4.64,4.64,0,1,1,0-9.26,4.64,4.64,0,1,1,0,9.26Zm0-6.12a1.5,1.5,0,1,0,1.63,1.4A1.53,1.53,0,0,0,910.64,473.1Z" transform="translate(-37 -404.34)"/><path class="cls-3" d="M921.92,500.54c0-9.51,7.14-16.17,17-16.17,5.58,0,10.28,2.12,12.91,6.3l-3.32,2.18a11.34,11.34,0,0,0-9.59-4.72c-7.21,0-12.47,5-12.47,12.41S931.69,513,938.9,513a11.29,11.29,0,0,0,9.59-4.66l3.32,2.18c-2.63,4.12-7.33,6.3-12.91,6.3C929.06,516.78,921.92,510.05,921.92,500.54Z" transform="translate(-37 -404.34)"/><path class="cls-3" d="M938.9,518.35c-10.78,0-18.61-7.49-18.61-17.81s7.83-17.74,18.61-17.74c6.36,0,11.43,2.5,14.3,7.05l.8,1.28-5.94,3.9-.92-1.3a9.71,9.71,0,0,0-8.24-4c-6.49,0-10.84,4.36-10.84,10.84s4.35,10.85,10.84,10.85a9.66,9.66,0,0,0,8.24-4l.92-1.3,6,3.91-.82,1.28C950.33,515.78,945.12,518.35,938.9,518.35Zm0-32.41c-9,0-15.36,6-15.36,14.6s6.32,14.67,15.36,14.67c4.52,0,8.24-1.53,10.62-4.33l-.68-.45a13.1,13.1,0,0,1-9.94,4.1c-8.3,0-14.1-5.75-14.1-14s5.8-14,14.1-14a13.08,13.08,0,0,1,9.94,4.17l.69-.45C947.17,487.47,943.46,485.94,938.9,485.94Z" transform="translate(-37 -404.34)"/><path class="cls-3" d="M985.4,496.73v19.74h-4.26v-5c-2,3.27-5.89,5.27-11.34,5.27-7.46,0-12-3.76-12-9.27,0-4.91,3.26-9,12.73-9H981v-1.93c0-5.46-3.19-8.42-9.34-8.42a17.13,17.13,0,0,0-11,3.75l-2-3.21a21.43,21.43,0,0,1,13.41-4.3C980.58,484.37,985.4,488.49,985.4,496.73ZM981,506.9v-5.21H970.61c-6.39,0-8.46,2.43-8.46,5.7,0,3.69,3.07,6,8.34,6C975.5,513.38,979.2,511.08,981,506.9Z" transform="translate(-37 -404.34)"/><path class="cls-3" d="M969.8,518.35c-8.17,0-13.66-4.36-13.66-10.84,0-3.19,1.4-10.6,14.35-10.6h8.84v-.36c0-4.61-2.53-6.85-7.72-6.85a15.56,15.56,0,0,0-9.89,3.36l-1.46,1.25-3.72-6,1.05-.87c3.62-3,8.89-4.67,14.46-4.67,9.66,0,15,4.95,15,13.93v21.32h-7.52v-2.48A16.27,16.27,0,0,1,969.8,518.35Zm.69-18.29c-7.37,0-11.1,2.5-11.1,7.45,0,4.75,4,7.7,10.41,7.7a14.47,14.47,0,0,0,6.26-1.27,14.74,14.74,0,0,1-5.57,1c-6.15,0-10-2.9-10-7.57,0-3.32,1.75-7.27,10.08-7.27h12v6l.18-.31v9.13h1V496.73c0-7.16-3.95-10.79-11.73-10.79a20.56,20.56,0,0,0-11.27,3.12l.32.5a19.31,19.31,0,0,1,10.51-3c7,0,11,3.65,11,10v3.51Zm.12,3.21c-6.83,0-6.83,2.88-6.83,4.12,0,4,4.69,4.42,6.71,4.42,4.24,0,7.29-1.8,8.84-5.22v-3.32Z" transform="translate(-37 -404.34)"/><path class="cls-4" d="M319.11,494.78c-1.45,1.82-1.17,4.08-1.46,6.15-2.22,15.84-8.95,29.85-17.33,43.21a391.74,391.74,0,0,1-32.91,44.37c-.55.66-1,1.58-2,1.62-.42-1.59.51-2.87,1-4.26,1.22-3.68,2.61-7.32,3.61-11a163.78,163.78,0,0,0,5-30.15,125.08,125.08,0,0,0-1-26.41,130.18,130.18,0,0,0-9.71-34.58,132.66,132.66,0,0,0-22.51-35.31,140.45,140.45,0,0,0-33-27.31c-.76-.46-1.69-.73-1.71-1.86,15.1-11.73,32.26-15.68,50.49-10.77,31.5,8.47,51.34,29.22,60,60.68.64,2.35.29,4.91,1.6,7.1v3.6a18.44,18.44,0,0,0,0,10.18Z" transform="translate(-37 -404.34)"/><path class="cls-5" d="M176.56,675.66c-6.6-5.61-13.25-11.14-19.77-16.84a709.77,709.77,0,0,1-75.33-76A4.65,4.65,0,0,1,80,579.36c1.92-34,12.87-64.13,37.51-88.45a77.55,77.55,0,0,1,12.82-10.73c7.38,13.1,12,27,12.14,42.18-8.1,4.14-15.73,8.95-22,15.66-7.58,8.11-13.65,17.11-16.29,28.09-3.8,15.81,3.31,33.45,17.31,44.26.42.32.94.92,1.38,0,1.6.24,1.93-1.17,2.6-2.05,8-10.54,17.69-18.89,30.17-23.82,5.27-2.09,10.77-3.23,16.2-4.68,2.92,10.32,5.88,20.64,8.74,31,4.34,15.72,8.57,31.48,13,47.19a4.2,4.2,0,0,1-1.53,5.09c-4.81,4.12-9.91,7.94-14.25,12.6Z" transform="translate(-37 -404.34)"/><path class="cls-5" d="M106.58,445.13a139.76,139.76,0,0,0-25.13,23.34C65.21,488.27,55.31,510.74,53,536.38a4.07,4.07,0,0,1-.31.74c-.94-.32-1.22-1.22-1.64-1.89A91.73,91.73,0,0,1,38.18,500.7c-.22-1.4.08-3-1.18-4.12V476.21c1.18-.79.89-2.14,1-3.22a84.88,84.88,0,0,1,6.69-22.83c6.22-13.62,15.34-24.77,28.17-32.72-.22,2,1.45,2.43,2.66,3.16a142.57,142.57,0,0,1,21.14,15.45C100.08,439,103,442.45,106.58,445.13Z" transform="translate(-37 -404.34)"/><path class="cls-4" d="M106.58,445.13c-3.6-2.68-6.5-6.13-9.87-9.08A142.57,142.57,0,0,0,75.57,420.6c-1.21-.73-2.88-1.18-2.66-3.16,7.56-5.19,16-8.44,24.77-10.75,3.51-.92,7.25-.76,10.6-2.35h15.57c2.28,8.36,4.51,16.74,6.89,25.08.58,2,.31,3-1.78,3.76C121,436.22,113.76,440.62,106.58,445.13Z" transform="translate(-37 -404.34)"/><path class="cls-5" d="M319.11,490a18.44,18.44,0,0,1,0-10.18Z" transform="translate(-37 -404.34)"/><path class="cls-5" d="M207.05,419.2c0,1.13.95,1.4,1.71,1.86a140.45,140.45,0,0,1,33,27.31,132.66,132.66,0,0,1,22.51,35.31A130.18,130.18,0,0,1,274,518.26a125.08,125.08,0,0,1,1,26.41,163.78,163.78,0,0,1-5,30.15c-1,3.73-2.39,7.37-3.61,11-.46,1.39-1.39,2.67-1,4.26l0,0c-.47.07-.62.22-.13.53-.12,1.12-1.07,1.58-1.81,2.53-1-1.3-.91-2.73-1.14-4C258.64,569.24,251,551.35,236,537.2c-13.31-12.58-29.45-19.1-47.42-21.43a81.87,81.87,0,0,0-21.78,0c-2.13.29-2.92-.39-3.47-2.46-3.86-14.55-7.85-29.06-11.81-43.58-.31-1.14-.89-2.2.72-3,18.81-9.29,32.66-24.3,46.09-39.83A38.46,38.46,0,0,1,207.05,419.2Z" transform="translate(-37 -404.34)"/><path class="cls-5" d="M244.33,612.15c.71,1.27.24,2.25-.7,3.18L203.37,655a4.52,4.52,0,0,1-1,.37c-.63-2.25-1.28-4.48-1.89-6.72l-19.05-70.08c9.77.26,19.29,1.64,28.44,5.38a70.82,70.82,0,0,1,26.71,18.85C239.28,605.87,241.13,609.57,244.33,612.15Z" transform="translate(-37 -404.34)"/><path class="cls-4" d="M244.33,612.15c-3.2-2.58-5.05-6.28-7.74-9.31A70.82,70.82,0,0,0,209.88,584c-9.15-3.74-18.67-5.12-28.44-5.38q-3.28-11.79-6.55-23.6c-.36-1.3-.83-2.4,1.4-2.56,25.41-1.85,55.15,17.12,64.3,41.2,1.8,4.74,3.54,9.56,3,14.78C243.51,609.78,244.7,610.8,244.33,612.15Z" transform="translate(-37 -404.34)"/><path class="cls-4" d="M171.82,579.8c-5.43,1.45-10.93,2.59-16.2,4.68-12.48,4.93-22.16,13.28-30.17,23.82-.67.88-1,2.29-2.6,2.05-1.31-6.56-2.44-13.13-1.16-19.83,1.7-8.87,6.66-15.89,12.87-22.13a53.16,53.16,0,0,1,26.87-14.69c2.28-.49,3.55-.27,4.19,2.43C167.51,564.06,169.73,571.91,171.82,579.8Z" transform="translate(-37 -404.34)"/><path class="cls-4" d="M142.45,522.36c-.11-15.19-4.76-29.08-12.14-42.18,2.95-2.69,6.47-4.6,9.67-6.95,1.87-1.37,2.37-.75,2.89,1.15,2.61,9.49,5.31,18.95,8,28.42,1.27,4.5,2.54,9,3.87,13.48.44,1.49.36,2.25-1.47,2.72C149.6,519.91,146.05,521.22,142.45,522.36Z" transform="translate(-37 -404.34)"/><path class="cls-4" d="M133.41,405.77c8.15,1,14.1,4.87,19,10.6.66.77,1,1.4.1,2.29-3.18,3.32-6.4,6.56-10.79,8.34-1.32.54-2.14.71-2.61-1C137.29,419.37,135.39,412.78,133.41,405.77Z" transform="translate(-37 -404.34)"/><path class="cls-4" d="M265.24,590.62c-.49-.31-.34-.46.13-.53A1.12,1.12,0,0,1,265.24,590.62Z" transform="translate(-37 -404.34)"/></svg>