<svg xmlns="http://www.w3.org/2000/svg" xmlns:xlink="http://www.w3.org/1999/xlink" width="40" zoomAndPan="magnify" viewBox="0 0 30 30.000001" height="40" preserveAspectRatio="xMidYMid meet" version="1.0"><defs><clipPath id="c385c39eb4"><path d="M 0.484375 0 L 29.515625 0 L 29.515625 29.03125 L 0.484375 29.03125 Z M 0.484375 0 " clip-rule="nonzero"/></clipPath><clipPath id="f4bc75f23a"><path d="M 0.484375 0 L 29.515625 0 L 29.515625 29.03125 L 0.484375 29.03125 Z M 0.484375 0 " clip-rule="nonzero"/></clipPath><clipPath id="ecc55f5249"><path d="M 7.742188 0 L 22.257812 0 C 24.183594 0 26.027344 0.765625 27.390625 2.125 C 28.75 3.488281 29.515625 5.332031 29.515625 7.257812 L 29.515625 21.773438 C 29.515625 23.699219 28.75 25.546875 27.390625 26.90625 C 26.027344 28.265625 24.183594 29.03125 22.257812 29.03125 L 7.742188 29.03125 C 5.816406 29.03125 3.972656 28.265625 2.609375 26.90625 C 1.25 25.546875 0.484375 23.699219 0.484375 21.773438 L 0.484375 7.257812 C 0.484375 5.332031 1.25 3.488281 2.609375 2.125 C 3.972656 0.765625 5.816406 0 7.742188 0 Z M 7.742188 0 " clip-rule="nonzero"/></clipPath><clipPath id="3fd6301e7b"><path d="M 0.484375 0 L 29.515625 0 L 29.515625 29.03125 L 0.484375 29.03125 Z M 0.484375 0 " clip-rule="nonzero"/></clipPath><clipPath id="ceee8bb7d7"><path d="M 7.742188 0 L 22.257812 0 C 24.183594 0 26.027344 0.765625 27.390625 2.125 C 28.75 3.488281 29.515625 5.332031 29.515625 7.257812 L 29.515625 21.773438 C 29.515625 23.699219 28.75 25.546875 27.390625 26.90625 C 26.027344 28.265625 24.183594 29.03125 22.257812 29.03125 L 7.742188 29.03125 C 5.816406 29.03125 3.972656 28.265625 2.609375 26.90625 C 1.25 25.546875 0.484375 23.699219 0.484375 21.773438 L 0.484375 7.257812 C 0.484375 5.332031 1.25 3.488281 2.609375 2.125 C 3.972656 0.765625 5.816406 0 7.742188 0 Z M 7.742188 0 " clip-rule="nonzero"/></clipPath><clipPath id="d5f17ada32"><rect x="0" width="30" y="0" height="30"/></clipPath><clipPath id="c96faf99dc"><path d="M 16 6.523438 L 24 6.523438 L 24 18 L 16 18 Z M 16 6.523438 " clip-rule="nonzero"/></clipPath><clipPath id="df20901eb2"><path d="M 9 11 L 17 11 L 17 22.492188 L 9 22.492188 Z M 9 11 " clip-rule="nonzero"/></clipPath><clipPath id="9bde8cfa3e"><path d="M 8 6.523438 L 13 6.523438 L 13 9 L 8 9 Z M 8 6.523438 " clip-rule="nonzero"/></clipPath><clipPath id="df212252a8"><path d="M 12 6.523438 L 14 6.523438 L 14 8 L 12 8 Z M 12 6.523438 " clip-rule="nonzero"/></clipPath></defs><g clip-path="url(#c385c39eb4)"><path fill="#ffffff" d="M 0.484375 0 L 29.515625 0 L 29.515625 29.03125 L 0.484375 29.03125 Z M 0.484375 0 " fill-opacity="1" fill-rule="nonzero"/><path fill="#ffffff" d="M 0.484375 0 L 29.515625 0 L 29.515625 29.03125 L 0.484375 29.03125 Z M 0.484375 0 " fill-opacity="1" fill-rule="nonzero"/></g><g clip-path="url(#f4bc75f23a)"><g clip-path="url(#ecc55f5249)"><g transform="matrix(1, 0, 0, 1, 0, 0.000000000000005692)"><g clip-path="url(#d5f17ada32)"><g clip-path="url(#3fd6301e7b)"><g clip-path="url(#ceee8bb7d7)"><path fill="#f3eee4" d="M 0.484375 0 L 29.515625 0 L 29.515625 29.03125 L 0.484375 29.03125 Z M 0.484375 0 " fill-opacity="1" fill-rule="nonzero"/></g></g></g></g></g></g><g clip-path="url(#c96faf99dc)"><path fill="#627363" d="M 23.652344 11.945312 C 23.566406 12.054688 23.582031 12.191406 23.566406 12.316406 C 23.433594 13.261719 23.027344 14.101562 22.523438 14.902344 C 21.933594 15.839844 21.261719 16.714844 20.542969 17.5625 C 20.511719 17.601562 20.488281 17.65625 20.421875 17.65625 C 20.398438 17.5625 20.453125 17.484375 20.480469 17.402344 C 20.554688 17.183594 20.636719 16.964844 20.699219 16.742188 C 20.855469 16.148438 20.957031 15.546875 21 14.933594 C 21.035156 14.40625 21.015625 13.878906 20.9375 13.351562 C 20.839844 12.636719 20.644531 11.945312 20.355469 11.28125 C 20.015625 10.503906 19.566406 9.800781 19 9.167969 C 18.421875 8.519531 17.761719 7.972656 17.015625 7.53125 C 16.96875 7.503906 16.914062 7.488281 16.914062 7.417969 C 17.820312 6.714844 18.851562 6.480469 19.949219 6.773438 C 21.84375 7.28125 23.039062 8.523438 23.558594 10.410156 C 23.597656 10.550781 23.574219 10.703125 23.652344 10.832031 L 23.652344 11.046875 C 23.597656 11.253906 23.597656 11.457031 23.652344 11.660156 Z M 23.652344 11.945312 " fill-opacity="1" fill-rule="nonzero"/></g><g clip-path="url(#df20901eb2)"><path fill="#708d75" d="M 15.078125 22.78125 C 14.683594 22.445312 14.28125 22.113281 13.890625 21.773438 C 12.269531 20.363281 10.746094 18.855469 9.359375 17.21875 C 9.308594 17.15625 9.265625 17.101562 9.269531 17.011719 C 9.382812 14.976562 10.042969 13.171875 11.527344 11.714844 C 11.765625 11.480469 12.011719 11.25 12.296875 11.070312 C 12.742188 11.855469 13.019531 12.6875 13.027344 13.597656 C 12.539062 13.847656 12.082031 14.132812 11.703125 14.535156 C 11.25 15.019531 10.882812 15.5625 10.722656 16.21875 C 10.496094 17.164062 10.921875 18.222656 11.765625 18.871094 C 11.789062 18.890625 11.820312 18.925781 11.847656 18.867188 C 11.945312 18.882812 11.964844 18.800781 12.003906 18.746094 C 12.484375 18.113281 13.070312 17.613281 13.820312 17.320312 C 14.136719 17.195312 14.46875 17.125 14.792969 17.039062 C 14.96875 17.65625 15.148438 18.273438 15.320312 18.894531 C 15.582031 19.835938 15.835938 20.78125 16.097656 21.722656 C 16.136719 21.855469 16.117188 21.933594 16.007812 22.027344 C 15.71875 22.273438 15.410156 22.503906 15.152344 22.78125 Z M 15.078125 22.78125 " fill-opacity="1" fill-rule="nonzero"/></g><path fill="#708d75" d="M 10.867188 8.972656 C 10.3125 9.382812 9.796875 9.835938 9.355469 10.371094 C 8.378906 11.554688 7.785156 12.902344 7.644531 14.4375 C 7.640625 14.453125 7.632812 14.46875 7.625 14.480469 C 7.570312 14.464844 7.550781 14.410156 7.527344 14.367188 C 7.128906 13.730469 6.871094 13.042969 6.753906 12.300781 C 6.742188 12.21875 6.757812 12.121094 6.683594 12.054688 L 6.683594 10.832031 C 6.753906 10.785156 6.734375 10.707031 6.746094 10.640625 C 6.816406 10.164062 6.949219 9.710938 7.148438 9.273438 C 7.523438 8.457031 8.070312 7.789062 8.84375 7.3125 C 8.828125 7.433594 8.929688 7.457031 9.003906 7.503906 C 9.457031 7.773438 9.878906 8.082031 10.273438 8.425781 C 10.476562 8.605469 10.652344 8.8125 10.867188 8.972656 Z M 10.867188 8.972656 " fill-opacity="1" fill-rule="nonzero"/><g clip-path="url(#9bde8cfa3e)"><path fill="#627363" d="M 10.867188 8.972656 C 10.652344 8.8125 10.476562 8.605469 10.273438 8.425781 C 9.878906 8.082031 9.457031 7.773438 9.003906 7.503906 C 8.929688 7.457031 8.828125 7.433594 8.84375 7.3125 C 9.296875 7.003906 9.804688 6.808594 10.332031 6.667969 C 10.542969 6.613281 10.769531 6.625 10.972656 6.527344 L 11.90625 6.527344 C 12.046875 7.027344 12.179688 7.53125 12.324219 8.03125 C 12.355469 8.152344 12.339844 8.207031 12.214844 8.257812 C 11.738281 8.4375 11.300781 8.703125 10.867188 8.972656 Z M 10.867188 8.972656 " fill-opacity="1" fill-rule="nonzero"/></g><path fill="#708d75" d="M 23.652344 11.660156 C 23.597656 11.457031 23.597656 11.25 23.652344 11.046875 Z M 23.652344 11.660156 " fill-opacity="1" fill-rule="nonzero"/><path fill="#708d75" d="M 16.914062 7.417969 C 16.914062 7.484375 16.96875 7.503906 17.015625 7.53125 C 17.761719 7.972656 18.421875 8.519531 19 9.164062 C 19.566406 9.800781 20.015625 10.503906 20.355469 11.28125 C 20.644531 11.945312 20.839844 12.636719 20.9375 13.351562 C 21.015625 13.878906 21.035156 14.40625 21 14.933594 C 20.957031 15.546875 20.855469 16.148438 20.699219 16.738281 C 20.636719 16.964844 20.554688 17.179688 20.480469 17.402344 C 20.453125 17.484375 20.398438 17.5625 20.421875 17.65625 C 20.394531 17.660156 20.382812 17.667969 20.414062 17.6875 C 20.40625 17.753906 20.347656 17.78125 20.304688 17.839844 C 20.242188 17.761719 20.25 17.675781 20.234375 17.597656 C 20.015625 16.40625 19.554688 15.332031 18.65625 14.488281 C 17.855469 13.734375 16.882812 13.34375 15.800781 13.203125 C 15.367188 13.144531 14.929688 13.144531 14.492188 13.199219 C 14.363281 13.21875 14.316406 13.175781 14.28125 13.054688 C 14.050781 12.179688 13.8125 11.3125 13.574219 10.441406 C 13.554688 10.375 13.519531 10.3125 13.617188 10.261719 C 14.746094 9.707031 15.582031 8.808594 16.390625 7.878906 C 16.539062 7.699219 16.714844 7.546875 16.914062 7.417969 Z M 16.914062 7.417969 " fill-opacity="1" fill-rule="nonzero"/><path fill="#708d75" d="M 19.15625 18.976562 C 19.199219 19.054688 19.171875 19.113281 19.113281 19.167969 C 18.304688 19.960938 17.5 20.753906 16.691406 21.546875 C 16.683594 21.554688 16.667969 21.554688 16.632812 21.570312 C 16.59375 21.433594 16.554688 21.300781 16.519531 21.167969 C 16.136719 19.769531 15.753906 18.367188 15.371094 16.96875 C 15.957031 16.984375 16.53125 17.066406 17.082031 17.292969 C 17.707031 17.539062 18.242188 17.917969 18.691406 18.421875 C 18.851562 18.601562 18.964844 18.824219 19.15625 18.976562 Z M 19.15625 18.976562 " fill-opacity="1" fill-rule="nonzero"/><path fill="#627363" d="M 19.15625 18.976562 C 18.964844 18.824219 18.851562 18.601562 18.691406 18.421875 C 18.246094 17.917969 17.707031 17.542969 17.082031 17.292969 C 16.53125 17.066406 15.960938 16.984375 15.371094 16.96875 C 15.242188 16.496094 15.109375 16.027344 14.976562 15.554688 C 14.957031 15.476562 14.929688 15.410156 15.0625 15.402344 C 16.589844 15.289062 18.378906 16.425781 18.929688 17.871094 C 19.039062 18.15625 19.144531 18.441406 19.113281 18.757812 C 19.105469 18.835938 19.179688 18.894531 19.15625 18.976562 Z M 19.15625 18.976562 " fill-opacity="1" fill-rule="nonzero"/><path fill="#627363" d="M 14.792969 17.039062 C 14.46875 17.125 14.136719 17.195312 13.820312 17.320312 C 13.070312 17.617188 12.484375 18.117188 12.003906 18.746094 C 11.964844 18.800781 11.945312 18.882812 11.847656 18.871094 C 11.769531 18.476562 11.703125 18.082031 11.777344 17.683594 C 11.878906 17.152344 12.179688 16.730469 12.550781 16.355469 C 13 15.902344 13.539062 15.609375 14.167969 15.476562 C 14.304688 15.445312 14.382812 15.460938 14.421875 15.621094 C 14.535156 16.097656 14.667969 16.566406 14.792969 17.039062 Z M 14.792969 17.039062 " fill-opacity="1" fill-rule="nonzero"/><path fill="#627363" d="M 13.027344 13.597656 C 13.019531 12.6875 12.742188 11.855469 12.296875 11.070312 C 12.472656 10.910156 12.6875 10.796875 12.878906 10.65625 C 12.992188 10.574219 13.019531 10.609375 13.050781 10.722656 C 13.207031 11.292969 13.371094 11.859375 13.53125 12.425781 C 13.609375 12.695312 13.683594 12.964844 13.765625 13.234375 C 13.792969 13.324219 13.785156 13.367188 13.675781 13.394531 C 13.457031 13.453125 13.242188 13.53125 13.027344 13.597656 Z M 13.027344 13.597656 " fill-opacity="1" fill-rule="nonzero"/><g clip-path="url(#df212252a8)"><path fill="#627363" d="M 12.484375 6.613281 C 12.972656 6.675781 13.332031 6.90625 13.625 7.25 C 13.664062 7.296875 13.683594 7.332031 13.632812 7.386719 C 13.4375 7.585938 13.246094 7.78125 12.980469 7.886719 C 12.902344 7.917969 12.851562 7.929688 12.824219 7.824219 C 12.714844 7.429688 12.601562 7.035156 12.484375 6.613281 Z M 12.484375 6.613281 " fill-opacity="1" fill-rule="nonzero"/></g><path fill="#627363" d="M 20.414062 17.6875 C 20.382812 17.667969 20.394531 17.660156 20.421875 17.65625 C 20.421875 17.667969 20.417969 17.675781 20.414062 17.6875 Z M 20.414062 17.6875 " fill-opacity="1" fill-rule="nonzero"/></svg>